/* XPM */
static char *_1ba8ec6738e45f4b7500f5574ef6a70gK3KSDrOnph3fCoi[] = {
/* columns rows colors chars-per-pixel */
"32 32 179 2 ",
"   c #C6152D",
".  c #C8172E",
"X  c #CD1D31",
"o  c #D01D31",
"O  c #C32839",
"+  c #D52537",
"@  c #D82737",
"#  c #D82837",
"$  c #DF2E3C",
"%  c #CF383D",
"&  c #DF303D",
"*  c #D1393E",
"=  c #E0303D",
"-  c #96593F",
";  c #B12E46",
":  c #B23049",
">  c #A73A56",
",  c #DF3744",
"<  c #D53B4A",
"1  c #DC3E4B",
"2  c #CB3E50",
"3  c #965C43",
"4  c #985D45",
"5  c #B44559",
"6  c #9F6348",
"7  c #A26549",
"8  c #974E6D",
"9  c #9C556E",
"0  c #8C5F7E",
"q  c #B84E62",
"w  c #BD5566",
"e  c #A25C75",
"r  c #AA637A",
"t  c #DF414D",
"y  c #C54454",
"u  c #CD4757",
"i  c #D24352",
"p  c #DF4551",
"a  c #D24E5A",
"s  c #E0414D",
"d  c #E04E5A",
"f  c #C65D6B",
"g  c #E05B66",
"h  c #E05E6A",
"j  c #C6667A",
"k  c #E06874",
"l  c #477296",
"z  c #4A779B",
"x  c #4D7A9E",
"c  c #567598",
"v  c #666D86",
"b  c #726E8C",
"n  c #7F7D9D",
"m  c #4C7DA2",
"M  c #956A86",
"N  c #9F758C",
"B  c #B47B8E",
"V  c #DD7F8A",
"C  c #E17984",
"Z  c #6F839D",
"A  c #788A9F",
"S  c #4D80A5",
"D  c #4E83A9",
"F  c #5282A5",
"G  c #5687A9",
"H  c #5B8AAC",
"J  c #5E8DB2",
"K  c #5F92B5",
"L  c #5595BD",
"P  c #5698BF",
"I  c #5A9ABF",
"U  c #7489A7",
"Y  c #6492B4",
"T  c #639BBD",
"R  c #6A9BBE",
"E  c #7D95B2",
"W  c #579DC3",
"Q  c #599CC2",
"!  c #639EC1",
"~  c #689FC2",
"^  c #5FA0C3",
"/  c #64A2C4",
"(  c #6CA5C4",
")  c #6DA8C7",
"_  c #63A5C8",
"`  c #66A9CB",
"'  c #6BACCB",
"]  c #70A6C4",
"[  c #74A9C5",
"{  c #72ACCB",
"}  c #79ADCA",
"|  c #6FB2CF",
" . c #73B1CF",
".. c #7CB2CD",
"X. c #76B5D0",
"o. c #7BB5D1",
"O. c #BA8697",
"+. c #8688A4",
"@. c #8C8BA6",
"#. c #8295A7",
"$. c #859AB5",
"%. c #BD97A9",
"&. c #87A1B6",
"*. c #81A7BF",
"=. c #87A7BD",
"-. c #8BAABE",
";. c #98A3B4",
":. c #92ABBE",
">. c #98ACBE",
",. c #A1A2B4",
"<. c #BAADB9",
"1. c #CF8493",
"2. c #C28999",
"3. c #D08493",
"4. c #E1939E",
"5. c #C297A6",
"6. c #DCB1BD",
"7. c #E0A7B2",
"8. c #E2A8B3",
"9. c #85AEC4",
"0. c #8CADC2",
"q. c #92AFC2",
"w. c #81B7CF",
"e. c #8BB3C9",
"r. c #9CB5C5",
"t. c #97B7C8",
"y. c #83B5D0",
"u. c #87BED5",
"i. c #8EBBD2",
"p. c #95BBD2",
"a. c #9BBFD6",
"s. c #A1BAC7",
"d. c #A9BBC8",
"f. c #A9BFD2",
"g. c #E2BDC5",
"h. c #86C2D7",
"j. c #8CC2D6",
"k. c #84C3D9",
"l. c #8BC6DB",
"z. c #8DCADD",
"x. c #98C4D8",
"c. c #92CADC",
"v. c #9FD1DF",
"b. c #A4C5DB",
"n. c #A7C6DA",
"m. c #A3CDDA",
"M. c #B6C9D7",
"N. c #B6C9D8",
"B. c #BACBDA",
"V. c #A5D2DD",
"C. c #ABD3DE",
"Z. c #8FCEE0",
"A. c #93CFE0",
"S. c #94D1E1",
"D. c #B1CEE1",
"F. c #A4D5E1",
"G. c #AAD6E2",
"H. c #ACDBE4",
"J. c #B1DCE5",
"K. c #BDD9E4",
"L. c #C4D0DF",
"P. c #E2C3CC",
"I. c #E2CDD7",
"U. c #E2CFD8",
"Y. c #C6D5E3",
"T. c #CBD6E4",
"R. c #CED9E6",
"E. c #CDDCE8",
"W. c #D1DCE7",
"Q. c #D4DEE9",
"!. c #DDDFEA",
"~. c #E3DAE4",
"^. c #C9E0EA",
"/. c #D5E2EC",
"(. c #DCE3ED",
"). c #E1E5ED",
"_. c #E2E8EF",
"`. c #E2E7F0",
"'. c #E3E8F1",
/* pixels */
"l l z m P ` Z.Z.Q Q m m z c n 3 - ;.T x x Q ' l.^ W z z x L ` _ ",
"z m L I ) u.[ ) ~ ! ~ +.e q 2 % % u w r @.} m.} T H T R / | F.c.",
"L L W ) r.q.-.=.r.N.T.V = = = $ & & & & V W.B.s.$.-.-.b.C.z.' _ ",
"P S T -.e.m.} q.R.`.'.4.= = = , & & & & 4.'._.Q.n.C.c.9.-./ D L ",
"W S =.9.V.u.^.(.'.'.'.8., = = = & & = , 8.'.'.'._.C. .h.*.-.T F ",
"_ [ r.m. .D.'.'.'.'.'.g.s $ $ = & & $ s g.'.'.'.'.).n.[ j.n.m.[ ",
"A.m.q.] n._.'.'.'.'.'.I.1 o o @ & $ $ a I.'.'.'.'._._.n.Y -.} C.",
"! ( =.e.(.'.'.'.'.'.!.L.u   O ; y < $ h ~.'.'.'.'.'.'.(.j.$.T ` ",
"z G r.W.'.'.'.'.`.Q.T.L.B 0 +.d.U b M 2.).'.'.'.'.'.'.'.Q.r.H L ",
"F ~ M._.'.'.'.'.Q.T.Y.a.! W ^ Z.' Q ) V.n./.'.'.'.'.'.'.'.B./ W ",
"c.H./.'.'.'.'.!.T.Y.e.F m W ^ ` h. .v.X.k.x.(.'._.'.'.'._.!..._ ",
"/ ;.6.P.I.~.~.T.T.p.F L W ` k.` ` k.` W ` z.x.(.~.I.g.8.4.3.<.c.",
"z 9 1 s d g h j 5.] m L _ l.| l.` W W D ` V.[ O.h d t , $ $ B T ",
"c 5 = $ $ $ o . B _ W m _ H.| A.T m m Q z.) W M $ = $ $ = = f R ",
"A y = & = $ + O @.` Q m ) G.X.F.' W Q | V.G W +.< = & & $ = u #.",
"6 * = $ = $ + : >.G.` ! l.' Q ' l._ { v.) S / :.i & = = $ & * 7 ",
"4 * = = = = = 2 E X.k.| V.) S / G.o.F.) Q _ u.$.2 , , $ $ + O 3 ",
"U y = = $ = = < ;.l.^ I | j.F P | G.) D Q Z.| ,.1 $ = = # X : Z ",
"K q = $ $ $ $ = N ^ G G _ C.H P { C.H L ' G.` M $ , $ = # . > Y ",
"x 9 1 s d g k C %.} h.k. .H./ ' F.{ W _ z. .~ O.h p 1 , + . 8 m ",
"I $.6.P.I.~.~._.(.K.| ' Z.| ' V.X.k._ ` J.` p.(.~.U.g.7.1.j n m ",
"Q ) E.'.'.'.'.'._./.y./ F.X.k._ W ` k.X.G.i.Q.'.'.'.'.(.T.B.~ m ",
"/ ( B.`.'.'.'.'.'.'.W.0.[ C.` S m W { l.x.Q.).'.'.'.`.Q.T.f.Q Q ",
"z.x.n.Q.'.'.'.'.'.'.'.(.O.O.@.U U @.O.2.(.'.'.'.'.'.!.T.B.q.[ l.",
"^ ( q.K.(.'.'.'.'.'.'.~.h = t i i t & h ~.'.'.'.'.(.T.Y.i.q.x.' ",
"G ( :.c.m._.'.'.'.'.'.U.d = = = & & $ d I.'.'.'.(.R.Y.D.{ t.} Q ",
"l.c.r...( n.(.'.'.'.'.6.s = = = & & & t P._.).(.R.Y.f.Z...r.Y L ",
"_ ` -.t.V...n.(.'.'.'.8.= = = = & & = = 7.(.^.E.Y.a.Q Y t.0.T L ",
"Q W / 0.9.m...K./._._.4.& & & = & # # + 3.R.L.L.p.~ R [ r.( P x ",
"W Q L T =.0.t.q.s.M./.3.& & & = + . .   j B.B.r.-.$.&.-.V.` P m ",
"m m m m W / [ j.h.' w.<.r w a * O ; > 8 @.C.w.m.j.[ ) h.) P P P ",
"L L L L W W / / ' l.| c.' j.A 3 - v J P ` c._ ` { J.S.` W m m P "
};
