/* XPM */
static char *_5f890cbd41f45e2b48c2749234e664akyPuq1c2oyaufvVd[] = {
/* columns rows colors chars-per-pixel */
"32 32 172 2 ",
"   c #020101",
".  c #0C0501",
"X  c #070B0C",
"o  c #150901",
"O  c #000317",
"+  c #0A0E11",
"@  c #0C1114",
"#  c #0C161C",
"$  c #111415",
"%  c #200E02",
"&  c #241202",
"*  c #2C1908",
"=  c #351C05",
"-  c #342314",
";  c #000625",
":  c #111D26",
">  c #000A34",
",  c #000B3D",
"<  c #071230",
"1  c #192429",
"2  c #1D313D",
"3  c #29252A",
"4  c #363336",
"5  c #512D0A",
"6  c #55310B",
"7  c #5E360D",
"8  c #61370D",
"9  c #64390E",
"0  c #503C24",
"q  c #7A440B",
"w  c #724413",
"e  c #5C4122",
"r  c #564831",
"t  c #5F513C",
"y  c #7A5328",
"u  c #00174E",
"i  c #1E3643",
"p  c #0F2650",
"a  c #162A59",
"s  c #233842",
"d  c #243C4C",
"f  c #293357",
"g  c #002067",
"h  c #12316F",
"j  c #012A7E",
"k  c #28404C",
"l  c #3A494C",
"z  c #2A4657",
"x  c #2F4955",
"c  c #364F57",
"v  c #2C4C6E",
"b  c #2E536C",
"n  c #32576D",
"m  c #3A5E70",
"M  c #3A6276",
"N  c #3C657B",
"B  c #3F687D",
"V  c #455557",
"C  c #486570",
"Z  c #416779",
"A  c #436B7D",
"S  c #834C0B",
"D  c #824D17",
"F  c #8A531A",
"G  c #95591B",
"H  c #9D5D1E",
"J  c #A66116",
"K  c #A2611E",
"L  c #985E20",
"P  c #A96621",
"I  c #AA6A26",
"U  c #B26B23",
"Y  c #B96E21",
"T  c #BA7125",
"R  c #D27F2B",
"E  c #D4822C",
"W  c #DE892E",
"Q  c #E78B2D",
"!  c #FF9E2D",
"~  c #EA8E31",
"^  c #ED9232",
"/  c #F59835",
"(  c #FD9C36",
")  c #FFA035",
"_  c #FFA339",
"`  c #B58772",
"'  c #013295",
"]  c #00329F",
"[  c #053A9F",
"{  c #0038B5",
"}  c #31498C",
"|  c #3F6E8B",
" . c #294DA2",
".. c #436C81",
"X. c #416D8C",
"o. c #4B7487",
"O. c #557A86",
"+. c #467395",
"@. c #4F7C93",
"#. c #49779C",
"$. c #477E9D",
"%. c #497B9E",
"&. c #756E90",
"*. c #4C7DA2",
"=. c #0246C4",
"-. c #054ED2",
";. c #014FDC",
":. c #0252E5",
">. c #0254EB",
",. c #0259F5",
"<. c #817DA1",
"1. c #5D8592",
"2. c #6A8992",
"3. c #4D81A5",
"4. c #4E83A9",
"5. c #4E89AE",
"6. c #5286A4",
"7. c #568BA5",
"8. c #5286A9",
"9. c #598CAB",
"0. c #5790AD",
"q. c #5D92AB",
"w. c #528FB4",
"e. c #5192B5",
"r. c #5D94B4",
"t. c #5595BD",
"y. c #5698BF",
"u. c #669AAF",
"i. c #649AB6",
"p. c #6FA3B3",
"a. c #76AABA",
"s. c #579BC1",
"d. c #5A9EC3",
"f. c #639FC0",
"g. c #5FA0C3",
"h. c #63A2C5",
"j. c #69A7C7",
"k. c #6BA8C7",
"l. c #63A5C9",
"z. c #67A9CB",
"x. c #6BACCB",
"c. c #76AEC3",
"v. c #70AECB",
"b. c #6DB0CE",
"n. c #72B1CE",
"m. c #7AB3C8",
"M. c #75B4D0",
"N. c #7AB6D1",
"B. c #7DB8D2",
"V. c #A38483",
"C. c #81AAB7",
"Z. c #85BED0",
"A. c #85C2D7",
"S. c #84C3D9",
"D. c #89C7DB",
"F. c #8DCADD",
"G. c #9AC8D4",
"H. c #92CDDE",
"J. c #9FD1DF",
"K. c #A2D2DE",
"L. c #A9D5DF",
"P. c #8FCEE0",
"I. c #93CFE0",
"U. c #95D1E1",
"Y. c #9FD1E0",
"T. c #A3D4E1",
"R. c #A5D6E2",
"E. c #A6D6E2",
"W. c #A8D7E2",
"Q. c #A9D8E3",
"!. c #ACDBE5",
"~. c #B3DFE7",
/* pixels */
"+.+.#.*.t.z.P.F.g.s.*.*.#.*.s.s.*.F.f.*.*.s.x.D.l.s.#.#.*.s.z.z.",
"#.*.t.s.x.S.z.l.d.s.s.s.w.w.*.s.x.F.z.f.f.l.T.x.s.*.s.f.f.x.T.I.",
"t.t.d.l.Y.M.d.s.s.s.d.s.*.*.s.x.Y.v.P.Q.P.n.P.f.*.f.x.W.~.D.z.l.",
"s.*.s.d.N.T.k.*.*.s.d.s.s.s.z.Y.v.s.f.z.b.W.z.d.z.W.P.M.z.f.*.s.",
"s.*.f.v.Y.B.W.j.f.d.t.*.4.l.S.x.s.*.*.s.f.P.l.l.E.n.z.S.z.l.f.*.",
"l.z.P.E.x.z.W.N.T.z.4.t.d.F.z.d.s.s.s.*.s.z.P.x.Y.h.s.z.D.!.W.v.",
"I.T.x.h.d.d.n.u.x c z k M K.v.d.s.s.s.s.s.l.!.M.Y.z.*.s.9.f.n.W.",
"f.f.y.8.s.v.C.v u u u u a O.G.b.d.s.*.s.l.n.W.z.j.S.l.s.s.*.s.l.",
"*.*.s.s.z.c.d g >.>.>.,.{ < @.K.f.*.s.z.P.E.x.s.*.l.S.z.l.s.*.s.",
"6.f.l.f.Z.2 j ;.:.:.:.>.>.=.< 1.x.s.v.Y.M.l.f.5.f.d.b.F.E.z.s.d.",
"I.Q.P.n.G.: ' =., u , ' ,.;.; Z S.M.Y.M.S.z.S.f.S.M.Y.M.x.S.x.l.",
"f.l.z.Z.k.O.h f q q S 4 ] ;.; A z.S.x.s.z.P.z.d.x.W.Z.Y.M.M.E.I.",
"*.*.t.d.f.W.x 6 ( ( ( J 3 [ p 2.l.d.s.*.f.W.z.d.z.~.j.v.E.W.Z.h.",
"+.+.*.*.s.v.V 6 ( ( ( ( U $ 9.I.f.*.*.f.P.j.d.d.x.!.f.5.s.j.D.d.",
"d.f.f.*.*.s.z 6 ( ( ( ( T $ q.E.x.s.d.b.Y.9.s.z.S.x.*.: # ..F.x.",
"P.I.T.z.f.d.*.V 6 8 R ( T X i d @.l.b.Y.n.*.f.S.m d 4 L H r X.E.",
"l.g.b.F.K.x.s.3.z x y K 9   5 9 t o.&.Z N N O.A r 7 w K / w i l.",
"g.s.e.7.q.p.6.0.a.p.4 & & = Y / U % & & + O     P / I 3 P 7 i s.",
"s.y.n X @ @ + @ + + I ^ ^ W = P ( Q ~ ^ &.]     P L 1 6.1   i y.",
"3.k e T T T T T T Y ^ ( ( ~ & G ) ( ( ! <.{ . K 9 % 1 5.X.| 3.%.",
"e.2 w _ _ _ _ _ _ ) ) ) W D D E ) ! / V.} a F ^ U D y d x $.t.#.",
"s.b e I U U U U U U I Y D . L Y T ` `  .a S ( ( R Y P 5 5 c $.*.",
"l.g.B $ $ $ @ $ @ + + + + $ @ + g -.-.> 9 Q Q Q 0 $ - E / w i d.",
"P.P.G.p.0.r.C.r.4.*.$.3.9.c.r.4.n ; O   o & % % C c.o.* R w s S.",
"g.g.b.L.l.g.F.b.s.*.*.f.P.n.Y.v.i.2.o.N b ..2.X.+.h.m...0 % l k.",
"0.g.b.P.g.3.l.J.b.s.d.n.E.z.M.L.W.M.s.y.*.d.P.z.r.*.j.A.m c Z d.",
"F.U.Q.b.h.3.y.x.Z.n.P.W.x.z.P.r.j.S.z.s.*.s.z.S.l.6.d.A.M.K.9.s.",
"g.g.b.P.L.k.g.l.M.T.n.f.s.f.S.l.d.z.K.v.s.s.d.z.S.d.y.r.D.x.s.t.",
"s.s.s.g.b.J.n.E.P.n.D.8.*.t.x.T.z.s.x.Y.b.d.z.P.z.s.s.f.H.l.t.*.",
"s.s.s.s.g.z.D.M.z.z.T.k.t.8.z.I.f.4.t.x.Z.N.T.M.f.*.*.x.E.l.y.*.",
"*.*.*.3.s.s.z.D.P.l.x.T.z.j.Y.z.d.w.8.s.x.T.B.T.P.z.z.Z.k.y.y.t.",
"t.s.s.s.s.g.g.g.x.D.z.I.b.D.x.d.s.*.t.s.l.I.l.l.n.!.I.z.s.*.*.s."
};
