/* XPM */
static char *b955510234834d0ac6e478baa3d1af20061oueiwWAXWAMUf[] = {
/* columns rows colors chars-per-pixel */
"32 32 179 2 ",
"   c #020203",
".  c #0A0909",
"X  c #120601",
"o  c #140A05",
"O  c #1A0A01",
"+  c #020512",
"@  c #090E11",
"#  c #1B1B19",
"$  c #261304",
"%  c #2A1503",
"&  c #321C09",
"*  c #211F1D",
"=  c #3E2104",
"-  c #111B21",
";  c #000831",
":  c #000C39",
">  c #17242A",
",  c #172631",
"<  c #1B2C34",
"1  c #1A2D39",
"2  c #1D303A",
"3  c #263034",
"4  c #442607",
"5  c #4B2703",
"6  c #472807",
"7  c #4A2905",
"8  c #4C2A09",
"9  c #502D0A",
"0  c #54310B",
"q  c #5D350B",
"w  c #583916",
"e  c #61380E",
"r  c #653E1A",
"t  c #4B3F2D",
"y  c #73410D",
"u  c #6B441A",
"i  c #744616",
"p  c #504838",
"a  c #654927",
"s  c #000D44",
"d  c #001244",
"f  c #00145C",
"g  c #243B46",
"h  c #2B3252",
"j  c #001460",
"k  c #01246D",
"l  c #05286D",
"z  c #1B3565",
"x  c #2A4655",
"c  c #2C495E",
"v  c #344A55",
"b  c #39545D",
"n  c #27446A",
"m  c #2F5061",
"M  c #31556D",
"N  c #375A6C",
"B  c #39477B",
"V  c #365C75",
"C  c #3B5F72",
"Z  c #3C6274",
"A  c #38647E",
"S  c #424F53",
"D  c #465B61",
"F  c #4E656D",
"G  c #406576",
"H  c #4B6D78",
"J  c #536E75",
"K  c #4D707C",
"L  c #59767E",
"P  c #834E19",
"I  c #8E551A",
"U  c #91561A",
"Y  c #9E5E1D",
"T  c #9C601E",
"R  c #AF681E",
"E  c #B1691E",
"W  c #A26120",
"Q  c #A76625",
"!  c #AE6922",
"~  c #B36B23",
"^  c #B86E24",
"/  c #BD7426",
"(  c #C37625",
")  c #C67A2A",
"_  c #CC7C29",
"`  c #D17E2A",
"'  c #D6842C",
"]  c #DD862D",
"[  c #E38B2E",
"{  c #FF9D2C",
"}  c #E68B30",
"|  c #EB8E31",
" . c #ED9333",
".. c #F39533",
"X. c #F59835",
"o. c #FD9C36",
"O. c #F6993D",
"+. c #FFA339",
"@. c #FFA83B",
"#. c #B7866B",
"$. c #B98869",
"%. c #A7837D",
"&. c #002A8B",
"*. c #01359D",
"=. c #0036A1",
"-. c #0036AE",
";. c #013CB5",
":. c #3B6782",
">. c #4E7687",
",. c #497488",
"<. c #577881",
"1. c #436F90",
"2. c #457294",
"3. c #467798",
"4. c #49779C",
"5. c #4A7A9E",
"6. c #4C7DA2",
"7. c #014CD6",
"8. c #014EDB",
"9. c #1356D6",
"0. c #155ADB",
"q. c #3566D4",
"w. c #0454E6",
"e. c #0255EC",
"r. c #0257F2",
"t. c #0259F5",
"y. c #0056FA",
"u. c #927F8D",
"i. c #57829D",
"p. c #688790",
"a. c #4D81A5",
"s. c #4E83A9",
"d. c #4E89AD",
"f. c #5789A9",
"g. c #5990AE",
"h. c #528FB1",
"j. c #5191B4",
"k. c #5D93B1",
"l. c #5595BD",
"z. c #5698BF",
"x. c #5A9ABD",
"c. c #628CA9",
"v. c #6494A9",
"b. c #639AB7",
"n. c #64A2BF",
"m. c #7EA6B2",
"M. c #579BC2",
"N. c #5A9EC4",
"B. c #639FC0",
"V. c #5FA0C4",
"C. c #63A2C4",
"Z. c #69A7C7",
"A. c #69A8C6",
"S. c #63A5C8",
"D. c #66A9CB",
"F. c #6BACCB",
"G. c #70AECC",
"H. c #6EB1CF",
"J. c #72B1CE",
"K. c #7DB8CC",
"L. c #75B4D0",
"P. c #79B6D1",
"I. c #7DBAD2",
"U. c #95C1CC",
"Y. c #84C3D9",
"T. c #89C7DA",
"R. c #8DCADD",
"E. c #95C4D1",
"W. c #92CDDE",
"Q. c #9ECDDB",
"!. c #9FD0DF",
"~. c #A4D3DE",
"^. c #8FCEE0",
"/. c #93CFE0",
"(. c #98D1E0",
"). c #A4D6E2",
"_. c #A8D7E2",
"`. c #ABDAE4",
"'. c #B3DFE7",
/* pixels */
"2.2.4.6.l.D./.^.V.M.6.6.M +         @ V C @   > f.k.5.4.5.x.D.Z.",
"4.6.l.M.F.Y.D.V.V.M.j.:.z l k l k k l n S u i a v A l.A.C.G.)./.",
"M.l.N.S.!.L.N.M.z.M.j.1 d 7.r.e.e.r.7.s 5 } +._ % x A.~.`.R.Z.S.",
"l.6.M.N.P.).F.6.a.z.j.1 d 7.t.e.e.r.7.s 7 | +._ % D T.J.D.N.s.l.",
"M.6.B.G.!.P._.Z.C.N.d., d w.t.e.e.t.8.s 8 } +._ % v C.Y.F.D.b.s.",
"B.Z.^._.G.Z._.P.!.A.3.1 : ;.w.e.e.w.;.: 7 } o._ % x l.S.T.`._.G.",
"/.).G.B.N.N.L.Y.J.Y.b.1   ; =.r.r.=.;   8 } +._ % c 6.M.g.B.G._.",
"N.S.M.s.M.F.(.F.M.F.E.g O q h &.&.h q O 6 } +._ % b B.M.l.a.l.D.",
"6.6.M.M.D.Y.F.M.h.h.v.g 8 ] P o o P ' 4 = [ +.' % x I.F.D.l.s.z.",
"6.B.B.S.T.Z.M.1.g 1 3 @ 8 | } ( ( [  .4 = [ +.' % x F.R.).F.M.M.",
"W.`./.G.U.,.V v w e q e y U Y Y Y T U u I O.' i v <.~.P.F.Y.F.S.",
"B.C.F.P.>.# . % ) X...X.^ % o O o O % ! X.[ a 2 i.~.K.!.J.P.)./.",
"4.6.h.m t W 4 $ ` +.o.o.} ^ ! ~ E ~ ^ | ) q S :.C.'.D.F._.`.J.D.",
"4.4.2.- 8 } Q i ] ' ! [ o.o.o.o.o.+.+.o.W . Z M.F._.D.z.S.H.Y.S.",
"N.B.g., 8 } X...o.I $ ! +.o.o.o.o.o.o.o.R o M D.Y.F.l.s.z.D.R.H.",
"^./.U.1 8 } +.o.o.P X ! o.o.X.o.o.o.o.o.! o C Y.D.z.s.l.D.Y.J._.",
"S.Z.n.H p W ] o.o.I O ! o.o.o.X.o.o.o.o.~ o K H.D.V.C.D.Y.D.V.S.",
"N.M.N.N.>.* I O...P X Q O.o.o.o...o.o.X.Q o Z R.).P.).R.D.M.N.N.",
"M.l.N.M.x.p.p q 0 %   B u.O.{ { { { O.u.B + Z V.P.(.J.S.l.s.M.M.",
"6.6.l.M.N.P.<.2 1 - + -.q.%.$.#.#.#.%.q.-.+ V S.Y.F.V.l.s.l.l.6.",
"M.l.6.6.B.^.b.4.b.J + *.w.9.0.0.0.9.9.w.*.+ M S./.S.M.6.l.N.l.4.",
"M.M.M.S.G.~.f.c.Q.G   : f j ;.y.y.;.j f : . c C.`.D.l.6.l.M.M.6.",
"S.S.G._._.G.Z.!.Z.c   % = = z ;.;.z & = $   M F.`.F.N.l.s.l.M.N.",
"^./._.P.D.D._.G.N.M X Y } ] r + + r [ } Y X C Y.J.Y.D.N.l.s.S.R.",
"N.C.L.).S.C.^.F.z.c o ~ @.+.y     y +.@.! o L D.s.C.Y.Z.N.S.!.F.",
"f.C.F.R.N.6.D.(.D.V o !  .( a 3 3 a )  .! o L D.l.6.S.R.F.R.F.V.",
"T./.).L.B.6.l.F.Y.G o ~ / & F i.k.F & / ~ o C Y.S.a.B.Y.L.~.g.l.",
"S.S.F.R._.G.N.D.P.<.o ^ ~ . <.S.N.Z   8 0   C F.Y.N.z.k.Y.F.M.l.",
"M.M.N.N.G.).L.).R.G o ^ ~ o Z ).S.A > .     Z Y.Z.M.l.B.W.S.M.6.",
"M.M.M.M.N.F.Y.L.D.Z o ~ ~ o C ^.C.5.:.<     L P.V.s.6.F._.Z.l.6.",
"6.6.6.6.M.N.D.Y.R.Z   9 a N m.D.M.l.d.:.N L v.).R.Z.S.Y.F.l.l.M.",
"l.l.M.M.M.N.N.S.F.K     g K.F.N.M.6.M.V.S./.S.Z.H.`./.D.M.6.6.l."
};
