/* XPM */
static char *f6eeb9e061cb452a87234a5ce21a84e5dwrcRjReVN03opkj[] = {
/* columns rows colors chars-per-pixel */
"32 32 134 2 ",
"   c #497195",
".  c #4B769A",
"X  c #4C7A9F",
"o  c #4D7EA3",
"O  c #4F81A6",
"+  c #4F82A8",
"@  c #5483A5",
"#  c #5284A8",
"$  c #5A87A8",
"%  c #5A8AAB",
"&  c #5D90AF",
"*  c #548EB4",
"=  c #5490B6",
"-  c #5695BC",
";  c #5897BE",
":  c #5798BF",
">  c #5998BE",
",  c #628BA8",
"<  c #6393B1",
"1  c #629DBF",
"2  c #579BC2",
"3  c #5B9DC3",
"4  c #619FC2",
"5  c #63A3C5",
"6  c #6AA6C6",
"7  c #6DA8C7",
"8  c #65A6C8",
"9  c #68A7C9",
"0  c #66A8CA",
"q  c #6CABCB",
"w  c #70AFCD",
"e  c #71AECC",
"r  c #72AFCD",
"t  c #70ADCC",
"y  c #70AECC",
"u  c #6FB0CE",
"i  c #70B0CE",
"p  c #71B0CE",
"a  c #73B0CE",
"s  c #72B1CE",
"d  c #72B1CF",
"f  c #73B1CF",
"g  c #73B2CF",
"h  c #74B2CF",
"j  c #75B2CF",
"k  c #76B2CF",
"l  c #76B3CF",
"z  c #74B1CF",
"x  c #77B3D0",
"c  c #77B4D0",
"v  c #78B4D0",
"b  c #7AB5D0",
"n  c #7BB5D0",
"m  c #7CB6D1",
"M  c #7BB5D0",
"N  c #80BFD7",
"B  c #81C0D7",
"V  c #83C1D7",
"C  c #86C2D7",
"Z  c #8AC4D7",
"A  c #82C1D8",
"S  c #82C2D8",
"D  c #83C2D8",
"F  c #82C2D9",
"G  c #83C2D9",
"H  c #83C3D9",
"J  c #85C4D9",
"K  c #87C6DB",
"L  c #84C3D9",
"P  c #8AC5D8",
"I  c #8BC7D9",
"U  c #88C6DB",
"Y  c #89C7DB",
"T  c #89C7DA",
"R  c #8CC8DB",
"E  c #8DC8DB",
"W  c #89C8DC",
"Q  c #8BC8DC",
"!  c #8CC8DC",
"~  c #8CC9DC",
"^  c #8DC9DC",
"/  c #8DCADD",
"(  c #8ECADD",
")  c #8ECBDD",
"_  c #8DCBDE",
"`  c #8DCCDE",
"'  c #8ECDDF",
"]  c #8DC9DC",
"[  c #90CADA",
"{  c #91CEDF",
"}  c #92CEDF",
"|  c #92CFDF",
" . c #91CEDF",
".. c #9DCFDE",
"X. c #9ECFDE",
"o. c #9DCEDC",
"O. c #9DD0DE",
"+. c #9ED0DE",
"@. c #9FD0DE",
"#. c #9FD0DF",
"$. c #9FD1DF",
"%. c #9ED0DE",
"&. c #A2D0DC",
"*. c #A0D1DF",
"=. c #A1D2DF",
"-. c #A1D1DE",
";. c #A8D4DE",
":. c #96D0E0",
">. c #94D0E0",
",. c #A3D4E0",
"<. c #A2D4E1",
"1. c #A3D4E1",
"2. c #A3D5E1",
"3. c #A4D5E1",
"4. c #A5D5E1",
"5. c #A4D6E1",
"6. c #A6D6E1",
"7. c #A7D6E1",
"8. c #A5D6E2",
"9. c #A7D6E2",
"0. c #A7D7E2",
"q. c #A4D5E1",
"w. c #A8D6E1",
"e. c #A8D7E2",
"r. c #A9D7E1",
"t. c #A8D8E2",
"y. c #A9D8E2",
"u. c #A8D9E3",
"i. c #A9DAE4",
"p. c #ACDBE4",
"a. c #ADDCE4",
"s. c #ADDCE5",
"d. c #ABDAE4",
"f. c #B2DEE6",
/* pixels */
"    . X > 0 ' ' 5 2 o . . o - - # U 4 X X > q W 5 - X . o > 8 5 ",
". X - > q V 0 5 3 3 - - = * O > 7 W q 5 3 8 2.q - o - 4 4 q 2.>.",
"- - 2 8 +.l 2 - - 2 3 > o o - q +.i ^ t.^ x ^ 4 + 1 q 7.p.^ 6 5 ",
"; o : 2 b =.7 O o 2 3 - - - q X.q > 4 5 q 7.q 3 9 7.^ x 9 3 + - ",
"- o 4 q X.m r.5 4 2 - o @ 5 G q 3 o o - 5 U 8 8 2.w 8 G q 8 1 O ",
"8 6 ^ 7.q 8 7.n +.6 O - 3 U 0 3 3 ; - + > 0 W q >.8 - 5 Z p.r.7 ",
"| 2.q 5 2 2 l J i G 6 2 q 7.w 3 2 2 > - 2 8 p.l ,.9 # - % 4 w r.",
"4 5 ; # > q X.q 3 q +.l G x =.q 2 - @ 2 5 w r.8 6 V 5 2 - @ - 5 ",
". o - > 8 G q 3 2 3 m 2.q 2 w 2.5 O - q ^ 2.q - O 5 G q 8 - O - ",
"@ 1 5 8 ^ 0 - o - q +.7 : 2 5 ~ 7 > q =.i 0 4 # > 3 i ^ 2.q 2 2 ",
"^ 7.W w 2.q > o 6 o.6 o o 2 8 8 V u +.l G q N 5 V l =.x q G q 5 ",
"4 5 q G l ^ 5 3 ^ 7 o - : 8 G 0 0 G q > 0 ' q 3 q t.m X.w l 2.{ ",
". X - > 6 7.t 9 a.5 o - 5 W w U 5 2 - # 6 =.5 2 8 f.q q r.t.v 8 ",
". . X X - q X.m ;.5 - o 5 p.w { 4 o O > ^ 6 3 3 q 7.5 : 5 q K 5 ",
"4 4 1 X o ; q =.b 8 ; o 6 7.w 1.q : - t &.$ - 0 H q - O 2 0 K q ",
"^ { ,.6 5 3 3 q ^ 2.q 4 ^ q > q ^ 5 t =.7 O 5 G 0 : O - 8 N x 7.",
"5 8 q E ,.q 3 3 8 l J w &.6 o 5 2.n +.7 3 5 J u 8 3 5 9 J 8 3 8 ",
"2 2 2 5 q ~ 5 q U U 5 > t Z @ - t t.6 @ 3 _ q ^ 7.b 1.E 8 2 3 3 ",
"2 - 2 2 8 ,.b X.q 4 @ # 6 ;.% ; w &.% - q <.8 5 x :.w 5 - o - 2 ",
"o o - 2 3 x &.7 3 q Z V w r.5 q =.l > 5 ~ q 2 5 K q 3 - O - - o ",
"- - o o 4 E 6 o 7 X.q q ^ q q X.l V 0 0 s.0 - 8 | 8 - o - 3 - . ",
"3 2 2 4 w =.$ , o.7 - 4 2.l G 6 > 8 m x r.4 O 5 p.8 - o - 3 - o ",
"5 5 t r.r.t 7 o.q o o o 7 7.9 o o > w J 6 @ - q i.q 3 - o - 2 3 ",
"_ { 7.v 8 9 &.t 3 = - - q ^ q ; ; t +.q - 3 8 G q G 8 3 - # 6 U ",
"3 8 w 2.8 4 ^ q : o o 4 ^ x X.w q ,.q > o 5 7.9 # 4 V 0 2 6 +.q ",
"# 4 q W 3 o 5 ,.q > 3 w 2.8 l &.t.c 3 - X 3 ~ 0 - o 5 W q ^ q 2 ",
"E { 2.x 5 o ; q G w E 7.q 8 J < 9 J q - o > 0 G 5 o 4 U i &.% ; ",
"8 5 q ^ 1.7 3 8 i ,.w 5 > 5 K 6 3 q =.q > 3 3 q N 4 ; % Z q > ; ",
"3 2 2 5 t X.l =.^ x U @ o - q <.8 - q ,.q 3 q J 8 > - 4 { 8 : o ",
": - 2 - 3 q J l 0 8 ,.7 - # 9 ^ 4 + - q J i :.b 5 O o 6 7.5 - X ",
"o X o o 2 2 8 K K 8 w ,.8 5 ..q 3 * o 2 q 7.b 7.U 6 5 J q ; - : ",
"- - - - 3 3 3 5 q J q  .q U q 3 - o - 3 5 { 8 8 q a.>.0 - o o - "
};
