/* XPM */
static char *ac781e60f86a4d10f58896a4effcb86bnYG9RzlTODazQ7ni[] = {
/* columns rows colors chars-per-pixel */
"32 32 144 2 ",
"   c None",
".  c #C61A2F",
"X  c #C61B30",
"o  c #C61C31",
"O  c #C71D32",
"+  c #C41F32",
"@  c #C61E33",
"#  c #C71F34",
"$  c #C42033",
"%  c #C72035",
"&  c #CA2033",
"*  c #CC2335",
"=  c #CF2234",
"-  c #CF2334",
";  c #CE2435",
":  c #C32A33",
">  c #C42A34",
",  c #D2293A",
"<  c #D62A3A",
"1  c #D72B3A",
"2  c #D72C3A",
"3  c #DA2F3D",
"4  c #D1373C",
"5  c #DD303C",
"6  c #DD313D",
"7  c #DE313D",
"8  c #DD323E",
"9  c #DC323F",
"0  c #DE323E",
"q  c #DE323F",
"w  c #DE333F",
"e  c #DF333F",
"r  c #D1383C",
"t  c #D3393D",
"y  c #9D4E2D",
"u  c #9D4E2E",
"i  c #A05230",
"p  c #A15230",
"a  c #A15330",
"s  c #DB3640",
"d  c #DE3440",
"f  c #DE3540",
"g  c #DE3441",
"h  c #DE3541",
"j  c #DC3640",
"k  c #DE3642",
"l  c #DE3A46",
"z  c #DE3C48",
"x  c #DE3F4B",
"c  c #DE434E",
"v  c #DF434E",
"b  c #DE434F",
"n  c #C8495B",
"m  c #D54554",
"M  c #DE4652",
"N  c #DE4752",
"B  c #DF4E5A",
"V  c #DF4F5A",
"C  c #DF4F5B",
"Z  c #DF505B",
"A  c #DF5B66",
"S  c #DF5E6A",
"D  c #DF5F6A",
"F  c #D6606E",
"G  c #C76577",
"H  c #C86275",
"J  c #C86576",
"K  c #C76578",
"L  c #DF6873",
"P  c #C87E8F",
"I  c #E07883",
"U  c #E07B86",
"Y  c #E07C86",
"T  c #E07C87",
"R  c #9CACBA",
"E  c #9DACBA",
"W  c #CE8392",
"Q  c #CF8392",
"!  c #E0929C",
"~  c #E0939D",
"^  c #E0939E",
"/  c #DFA6B0",
"(  c #E1A7B1",
")  c #E1A8B2",
"_  c #E1B2BC",
"`  c #A6B5C3",
"'  c #A7B5C3",
"]  c #ABB8C5",
"[  c #E1BBC4",
"{  c #E1BBC5",
"}  c #B8C6D4",
"|  c #BFCCD9",
" . c #C0CCDA",
".. c #C7CEDC",
"X. c #CECAD8",
"o. c #C9CFDD",
"O. c #DEC9D3",
"+. c #C7D0DB",
"@. c #C4D0DE",
"#. c #E1C1CB",
"$. c #E1C2CB",
"%. c #E1CCD6",
"&. c #E1CED7",
"*. c #C8D4E2",
"=. c #C9D4E2",
"-. c #C9D5E3",
";. c #CAD5E3",
":. c #CED5E3",
">. c #CAD6E4",
",. c #CBD6E4",
"<. c #CCD7E5",
"1. c #CDD8E5",
"2. c #D3DAE4",
"3. c #D3DBE5",
"4. c #D1DBE7",
"5. c #DFDCE6",
"6. c #D4DDE9",
"7. c #D7DFEA",
"8. c #DEDFE9",
"9. c #E2D7E1",
"0. c #E2D8E1",
"q. c #E2D9E3",
"w. c #E2DAE3",
"e. c #E2DFE8",
"r. c #DAE0E9",
"t. c #D9E0EB",
"y. c #DAE0EA",
"u. c #DEE0E9",
"i. c #D9E1EC",
"p. c #DBE2EC",
"a. c #DAE3EE",
"s. c #DBE4EE",
"d. c #DEE7F0",
"f. c #E2E2EB",
"g. c #E2E4ED",
"h. c #E0E5EF",
"j. c #E0E6EF",
"k. c #E1E6EF",
"l. c #E2E6EF",
"z. c #E2E7F0",
"x. c #E3E8F0",
"c. c #E2E8F1",
"v. c #E3E8F1",
"b. c #E2E9F2",
/* pixels */
"                              a a                               ",
"                        h h s t t h h h                         ",
"        E E E E ] +.u.Y e e e h w w w w Y 8.+.] E E E E         ",
"      E E     2.y.j.z.~ h e e 5 w w w h ! j.j.y.2.    E E       ",
"    E       v.v.z.z.v.) l e e e w w 5 l / v.z.v.v.v.    E E     ",
"    E     z.z.z.z.z.v.{ b 5 5 h w w e c [ v.z.z.z.z.z.    E     ",
"    E   v.z.z.z.z.z.v.O.m * * 2 w w e B O.b.v.d.z.z.z.v.  E     ",
"    E 2.v.z.z.z.v.j.i.X.n . o - e w e S w.v.v.v.z.z.z.v.2.E     ",
"    ] y.v.v.v.v.s.7.;.o.J             U f.z.v.j.z.z.v.v.y.]     ",
"    +.z.v.v.d.j.7.;.;.                    x.j.v.z.z.v.v.d.+.    ",
"    d.v.b.v.z.t.>.;.                        v.j.v.v.v.b.z.u.    ",
"    _ $.O.0.5.:.;.                            f.0.&.[ / ! Y     ",
"  z z M Z A F H P                             Y S B M l h e h   ",
"  h e e e 5 - X                                 e 5 e 5 h e h   ",
"  s d e 5 5 * o                                 9 w h e 5 e h   ",
"p t e e h e 2 *                                 w w 5 e h e t i ",
"i t e e 5 e e e                                 h e h e 5 < : u ",
"  9 e e h e e e                                 w e 5 e 5 % $   ",
"  h w e e 3 e 3                                 e e e e 2 o %   ",
"  z z M B A L I !                             U S B c k , X %   ",
"    _ $.&.0.e.j.z.                            f.e.O.{ / W K     ",
"    d.v.v.v.z.z.z.z.                        z.z.v.v.v.s.>.o.    ",
"    +.v.z.z.z.z.z.z.z.                    z.z.z.v.z.d.1.;.}     ",
"    ] y.v.z.z.z.z.z.z.f.U             U f.z.z.z.z.z.t.-...'     ",
"    E 2.v.j.v.j.v.j.v.0.S e h h h h 5 S 0.v.j.v.z.i.<.;.| E     ",
"    E   v.v.j.v.j.v.v.&.B e 5 e e 5 e B O.v.v.v.i.1.;.>.  E     ",
"    E     x.v.j.v.j.v.[ c e 5 h 5 h e c { b.s.y.1.;.;.    E     ",
"    E E     x.x.v.v.v.( l e e 5 e h e l / d.4.;.;.>.    E E     ",
"      E E     2.y.j.z.! h d e e 5 5 2 , Q >.;.@. .    E E       ",
"        E E E E ] +.8.Y e h 5 e < % o o K ..} ' E E E E         ",
"                        s h h 4 > + + +                         ",
"                              p u                               "
};
