/* XPM */
static char *e57e9a4724464d5d8e88677961cedbc4vpGvu0Fwof5PqONN[] = {
/* columns rows colors chars-per-pixel */
"32 32 2 1 ",
"  c None",
". c black",
/* pixels */
" ..                             ",
" ...    ..                      ",
" ..............                 ",
" .................           .  ",
" ...........   ................ ",
" ...........      ............. ",
" ...........         .......... ",
" ...........         .......... ",
" ......              .......... ",
" ...        ....     .......... ",
" ...        .......  .......... ",
" ...        .........        .. ",
" ...        .........        .. ",
" ...        .........        .. ",
" ...  ...... ........        .. ",
" ...........    .....        .. ",
" ...........       ..       ... ",
" ...........         .......... ",
" ...........         .......... ",
" ............        .......... ",
" ................    .......... ",
" ....        .................. ",
" ...            ..............  ",
" ...                .......     ",
" ...                            ",
" ...                            ",
" ...                            ",
" ...                            ",
" ...                            ",
" ...                            ",
" ...                            ",
" ..                             "
};
