/* XPM */
static char *dedc11cf549042b7c3a2e213995abb9cybgNQWTnWm52YbZP[] = {
/* columns rows colors chars-per-pixel */
"32 32 171 2 ",
"   c #020203",
".  c #0C0502",
"X  c #02040B",
"o  c #070A0C",
"O  c #0B0A0A",
"+  c #120601",
"@  c #130C07",
"#  c #190C03",
"$  c #050919",
"%  c #0B1318",
"&  c #141A1B",
"*  c #200E02",
"=  c #231102",
"-  c #2E1803",
";  c #321A03",
":  c #341B03",
">  c #3C2106",
",  c #3F250B",
"<  c #000635",
"1  c #14222A",
"2  c #1D3039",
"3  c #262E30",
"4  c #2F3537",
"5  c #432507",
"6  c #492907",
"7  c #482A0B",
"8  c #512E0A",
"9  c #55310C",
"0  c #5B340C",
"q  c #5D390E",
"w  c #523310",
"e  c #61370E",
"r  c #63390E",
"t  c #6B3F11",
"y  c #653E18",
"u  c #5C3C25",
"i  c #7E4403",
"p  c #6C4112",
"a  c #724314",
"s  c #794714",
"d  c #7C4A17",
"f  c #4A453A",
"g  c #504939",
"h  c #754C21",
"j  c #765228",
"k  c #00144F",
"l  c #001B5D",
"z  c #1F3442",
"x  c #263A45",
"c  c #253C4A",
"v  c #223057",
"b  c #001E61",
"n  c #062568",
"m  c #03256E",
"M  c #002674",
"N  c #26404E",
"B  c #3B4747",
"V  c #3A474C",
"C  c #2A4452",
"Z  c #354B53",
"A  c #3A535A",
"S  c #2F5469",
"D  c #355669",
"F  c #3D6579",
"G  c #4C4F47",
"H  c #4C524C",
"J  c #415459",
"K  c #605F50",
"L  c #445D66",
"P  c #5A6660",
"I  c #436776",
"U  c #436A7C",
"Y  c #814E19",
"T  c #885219",
"R  c #8B5319",
"E  c #955B1C",
"W  c #9D5F1F",
"Q  c #875421",
"!  c #945B22",
"~  c #A46721",
"^  c #AF6921",
"/  c #B86E24",
"(  c #BD7426",
")  c #C57728",
"_  c #CA7B29",
"`  c #D17E2A",
"'  c #D5832B",
"]  c #DD862D",
"[  c #DD8A2E",
"{  c #E1892E",
"}  c #E58C30",
"|  c #EB8E31",
" . c #ED9132",
".. c #F39433",
"X. c #F89734",
"o. c #FD9C36",
"O. c #FDA037",
"+. c #FFA43A",
"@. c #FFA83C",
"#. c #013BAB",
"$. c #3C6A84",
"%. c #3D6B85",
"&. c #436E85",
"*. c #447189",
"=. c #4A768B",
"-. c #567A85",
";. c #447494",
":. c #487A97",
">. c #49779C",
",. c #4A7B9D",
"<. c #4C7DA2",
"1. c #0149CF",
"2. c #014CD5",
"3. c #014DD9",
"4. c #0253E7",
"5. c #0258F2",
"6. c #025BFA",
"7. c #5B838F",
"8. c #4E819D",
"9. c #568193",
"0. c #55849A",
"q. c #678D99",
"w. c #72949D",
"e. c #4D81A5",
"r. c #4E83A9",
"t. c #5587A2",
"y. c #5286A9",
"u. c #5689AB",
"i. c #5D8EAE",
"p. c #5C91AC",
"a. c #5D91B1",
"s. c #5595BD",
"d. c #5698BF",
"f. c #5B99BE",
"g. c #699AAD",
"h. c #629DBA",
"j. c #7EA2AC",
"k. c #579BC2",
"l. c #5A9EC3",
"z. c #629FC0",
"x. c #5FA0C3",
"c. c #63A2C5",
"v. c #69A7C7",
"b. c #6AA8C6",
"n. c #63A5C8",
"m. c #66A9CB",
"M. c #6BACCB",
"N. c #70ACC6",
"B. c #70AECC",
"V. c #6DB0CE",
"C. c #78B1C5",
"Z. c #72B1CE",
"A. c #75B4D0",
"S. c #79B6D1",
"D. c #7DB9D2",
"F. c #81BBCF",
"G. c #97C4CE",
"H. c #84C3D9",
"J. c #89C7DB",
"K. c #8DCADD",
"L. c #92CDDE",
"P. c #9FD0DF",
"I. c #A2D2DF",
"U. c #8FCEE0",
"Y. c #93CFE0",
"T. c #95D1E1",
"R. c #A3D5E1",
"E. c #A5D6E2",
"W. c #A8D7E2",
"Q. c #ABDAE4",
"!. c #B3DFE7",
/* pixels */
";.;.>.<.s.M.Y.U.x.k.<.>.>.<.s.s.u.J.z.<.,.l.M.J.n.s.<.>.<.l.v.n.",
">.<.s.k.M.F.m.x.l.l.k.s.s.s.r.f.b.K.m.c.l.m.E.M.s.e.s.c.z.M.R.Y.",
"k.s.l.n.T.A.l.k.k.k.l.k.<.<.s.Z.P.Z.K.Q.K.A.K.x.r.z.M.E.!.J.v.n.",
"s.<.k.l.F.R.M.<.<.k.l.d.s.s.m.T.b.8.:.e.t.G.M.l.b.E.Y.A.v.l.r.s.",
"k.<.l.Z.P.F.W.z.c.l.s.<.e.n.H.M.e.1 o % % 7.m.m.E.B.m.H.m.n.z.e.",
"n.m.U.W.V.m.W.S.P.b.e.s.z.K.m.;.N Y W a . F K.M.Y.n.k.n.J.!.W.B.",
"Y.R.M.z.l.z.A.U.Z.C.:.*.p.E.M.S = ' @._ # F Q.Z.E.v.y.s.u.z.B.W.",
"z.z.k.<.k.M.T.m.l.=.& o A M.R.L = ' +.) # U W.b.v.H.c.l.s.y.s.n.",
"<.<.k.k.m.H.M.k.k.%.O t j c h.-.= ' +.) # -.M.k.r.n.F.V.n.k.<.k.",
"<.z.n.n.K.m.k.<.k.;.@ ) ~ o D Z + R { _ # %.z.r.l.l.B.Y.E.M.k.k.",
"Y.Q.U.Z.R.M.k.<.v.q.@ ^ ! X X X X X Q ( # &.F.m.F.A.R.S.M.H.M.n.",
"z.z.m.H.A.K.n.z.L.&.X ; v #.#.#.#.#.v :   -.M.l.V.Q.D.T.Z.A.E.Y.",
">.<.k.z.z.E.M.m.!.&.    b 5.6.6.6.5.M     -.M.k.m.!.m.M.W.Q.S.n.",
">.>.>.<.k.B.P.F.W.&.    l 4.3.1.2.4.m     I z.k.V.Q.z.k.n.V.U.z.",
"z.z.z.<.<.k.M.R.A.&.X   b 2.l $ k 2.M     D k.n.H.M.k.<.k.m.U.M.",
"U.U.R.n.z.l.l.m.q.K t * < m u i y n < + r G D I D %.<.k.n.H.V.R.",
"x.x.V.L.E.b.d.e.2 9 { 5   > ' O.{ 7   : { t   # = 4 0.n.H.m.l.n.",
"x.x.k.l.Z.K.8.1   0 { 5 6 ' ..o.X.] 9 ; ] r - ) { ! 3 g.m.k.l.l.",
"k.k.k.k.c.w.G d = 9 { 5 q o.o.o.o.+.p ; ] r >  .+.' T B %.r.k.s.",
"<.r.s.k.l.Z 6 { 8 8 } p r _ ..O.X._ a e } r > | o.O...p 3 ;.s.<.",
"k.k.<.<.l.A 6 { 8 6 | ..R > ) O.' 5 d  ...q > | o.o.o. .T 1 :.,.",
"k.k.k.l.N.J 5 { 9 . p [ [ T r 0 e T ' } s s /  .E E X.+.! % ;.<.",
"n.n.V.E.I.Z 5 ] 0     Y [  .p ; e } } T + E @.X.6 ; ^ ( h z r.c.",
"U.Y.E.D.n.C 5 { e       a ..{ { { ..d o   E o.} 9 o O . c :.m.J.",
"l.n.Z.E.c.c 5 } ` p X S P 8 9 9 9 8 H $.S f 8 w V &.9.&.,.b.P.M.",
"u.l.M.K.l.x 5 | @.^ o 0.j.c x V V x %.s.,.F x N ;.<.c.K.M.K.b.x.",
"J.Y.E.A.z.c , ' X.! & j.B.l.F.i.c.F.b.l.<.s.x.D.c.<.x.H.A.I.a.k.",
"n.n.m.L.I.g.D 7 5 g -.h.l.c.J.b.l.M.I.M.d.l.l.V.H.l.k.a.J.m.k.s.",
"k.k.l.z.V.T.g.L Z &.F.y.<.s.M.E.n.k.M.R.M.x.M.H.n.l.d.c.L.n.s.<.",
"k.k.k.k.k.M.F.A.n.m.E.B.s.y.b.L.c.r.s.b.H.Z.R.A.c.<.<.b.E.n.d.<.",
"<.<.<.<.k.l.M.U.H.m.V.R.n.v.T.M.k.s.r.k.M.E.S.E.K.v.n.H.m.f.s.k.",
"k.k.k.k.k.k.l.l.m.K.m.T.M.K.V.l.s.<.s.k.n.T.n.n.M.!.T.m.k.<.<.s."
};
