/* XPM */
static char *_8921d820dd1436dd81b05a51dd5f7e7jZ4vHQ3EilUFtZwT[] = {
/* columns rows colors chars-per-pixel */
"32 32 216 2 ",
"   c None",
".  c black",
"X  c #010000",
"o  c #030201",
"O  c #050301",
"+  c #070401",
"@  c #010204",
"#  c #000207",
"$  c #010307",
"%  c #000309",
"&  c #110A03",
"*  c #140C04",
"=  c #150C05",
"-  c #150D05",
";  c #160D05",
":  c #1C0E00",
">  c #1A0F06",
",  c #1A1006",
"<  c #1E1204",
"1  c #000613",
"2  c #000713",
"3  c #010713",
"4  c #010714",
"5  c #040914",
"6  c #060A14",
"7  c #060B16",
"8  c #060C19",
"9  c #030C1F",
"0  c #211407",
"q  c #241404",
"w  c #2D1802",
"e  c #231508",
"r  c #261708",
"t  c #2F1C0A",
"y  c #311F0B",
"u  c #321E0B",
"i  c #331E0B",
"p  c #331F0B",
"a  c #201918",
"s  c #35200C",
"d  c #37210C",
"f  c #37220C",
"g  c #3A220B",
"h  c #38210C",
"j  c #3A230D",
"k  c #3B240D",
"l  c #000927",
"z  c #010D26",
"x  c #000F2F",
"c  c #02102D",
"v  c #02112F",
"b  c #06132E",
"n  c #021231",
"m  c #00113E",
"M  c #02173F",
"N  c #2F272A",
"B  c #402408",
"V  c #42280F",
"C  c #43290F",
"Z  c #44290F",
"A  c #45290F",
"S  c #4B2A09",
"D  c #4B2B0A",
"F  c #4B2D11",
"G  c #4D2E11",
"H  c #4D2F11",
"J  c #4E3012",
"K  c #583514",
"L  c #593714",
"P  c #5A3614",
"I  c #5C3814",
"U  c #5C3815",
"Y  c #5E3815",
"T  c #673C10",
"R  c #643C16",
"E  c #4F3C3B",
"W  c #6D4218",
"Q  c #6F4319",
"!  c #7A4815",
"~  c #714419",
"^  c #724519",
"/  c #734519",
"(  c #73461A",
")  c #75471A",
"_  c #76471A",
"`  c #77481A",
"'  c #7A4A1B",
"]  c #7C4A1B",
"[  c #7A4A1C",
"{  c #7C4B1C",
"}  c #784C1C",
"|  c #7F4C1C",
" . c #7F4D1C",
".. c #7F5028",
"X. c #021841",
"o. c #021842",
"O. c #051B46",
"+. c #001A52",
"@. c #00175B",
"#. c #022059",
"$. c #102252",
"%. c #212747",
"&. c #3A3443",
"*. c #21315B",
"=. c #04276B",
"-. c #04286F",
";. c #042971",
":. c #042972",
">. c #804D1C",
",. c #824F1D",
"<. c #81501D",
"1. c #85501E",
"2. c #88511A",
"3. c #88521E",
"4. c #8B551F",
"5. c #8C551F",
"6. c #975C1E",
"7. c #A4611E",
"8. c #A4611F",
"9. c #A6621E",
"0. c #A8631D",
"q. c #855327",
"w. c #905720",
"e. c #945921",
"r. c #975B21",
"t. c #935924",
"y. c #995F23",
"u. c #A66425",
"i. c #AC6822",
"p. c #AC6826",
"a. c #B16923",
"s. c #B56D28",
"d. c #BC722A",
"f. c #BF752B",
"g. c #BF742E",
"h. c #C3772C",
"j. c #C4762C",
"k. c #C4782C",
"l. c #CB7B2D",
"z. c #CF7D2E",
"x. c #CC7E2E",
"c. c #D17E2F",
"v. c #D37F2F",
"b. c #D3802F",
"n. c #DB8732",
"m. c #DE8631",
"M. c #DF8732",
"N. c #E08732",
"B. c #E68A31",
"V. c #E78B33",
"C. c #E18D32",
"Z. c #E18D34",
"A. c #E48C34",
"S. c #E58D34",
"D. c #E78C34",
"F. c #E68D34",
"G. c #E98C34",
"H. c #EC8F35",
"J. c #EE9235",
"K. c #F49436",
"L. c #F79537",
"P. c #F69838",
"I. c #FA9838",
"U. c #FB9838",
"Y. c #FA9A39",
"T. c #FC9838",
"R. c #FD9838",
"E. c #FF9A39",
"W. c #FF9C39",
"Q. c #FF9C3A",
"!. c #FF9D3A",
"~. c #FF9F3A",
"^. c #FF9F3B",
"/. c #FFA03B",
"(. c #FFA23C",
"). c #FFA83E",
"_. c #022F8C",
"`. c #07348B",
"'. c #063BA2",
"]. c #083DA3",
"[. c #043EAE",
"{. c #0641B3",
"}. c #0341B7",
"|. c #0642B5",
" X c #0440B6",
".X c #0442B9",
"XX c #0643B8",
"oX c #0442BA",
"OX c #0442BB",
"+X c #0443BB",
"@X c #0445C1",
"#X c #0846C0",
"$X c #0749C9",
"%X c #0549CD",
"&X c #074DD3",
"*X c #074DD5",
"=X c #074FD9",
"-X c #0650DF",
";X c #0851DF",
":X c #0752E2",
">X c #0852E2",
",X c #0853E4",
"<X c #0754E9",
"1X c #0854E8",
"2X c #0855EA",
"3X c #0855EB",
"4X c #0855EC",
"5X c #0856EE",
"6X c #0857EE",
"7X c #0858F1",
"8X c #0858F3",
"9X c #0858F4",
"0X c #0859F4",
"qX c #095BFA",
"wX c #095CFC",
"eX c #095CFE",
/* pixels */
"                                                                ",
"                          o o o o o                             ",
"                        n X.X.X.X.M                             ",
"                      o =.:X;X;X,X$Xc                           ",
"                      o -.8X6X6X0X*Xn                           ",
"                      o ;.8X2X2X0X=Xc                           ",
"                      o #.%X1X6X:X[.z o                         ",
"                    o o $ O.&X8X'.9 $ o o                       ",
"                  Z 3.0 D ..$.@.&.2.< J ,.*                     ",
"                h 4.A.f } C.T D 6.C.u <.n.Y r                   ",
"              o e.Q.G.Z ~ G.N.m.D.c.k 1.Q.G.G o                 ",
"              o y.(.U.b.] u f f u V u.D./.P.J o                 ",
"                Y | 5.A.h.Q ~ ~ W  .D.k.] { h                   ",
"                  o = j.Q.E.E.Q.E.E.Q.' o o                     ",
"                    = d.Q.T.U.T.T.T.U.~ o                       ",
"                    + B i./.Q.Q./.J.! q o                       ",
"                    $ m E 7.7.u.0.t.%.z o                       ",
"                    1 {.`.7 7 8 6 b #X;.o                       ",
"                    4 .X-X.X.X+X.X@X<X;.o                       ",
"                    % +.|.wXqXqXeX6X_.x o                       ",
"                    O w *.}.|.|..X].N : o                       ",
"                    = s.q.5 2 2 1 a g.~ o                       ",
"                    = k.B.2.& o g a.K.} o                       ",
"                    = k.).z.= o P U.Q.` o                       ",
"                    = p.U.l.> o P L.Q._ o                       ",
"                      e r.z.= o K L.Q._ o                       ",
"                        F R = o P G.w.V                         ",
"                          o   o Y m.f                           ",
"                              o P v.y                           ",
"                                t C                             ",
"                                                                ",
"                                                                "
};
