/* XPM */
static char *_04117d2bdaf40bb85b315b729d82eae5jwxDYfpPy4VNI1u[] = {
/* columns rows colors chars-per-pixel */
"32 32 215 2 ",
"   c #393B6B",
".  c #3A396D",
"X  c #3A3D73",
"o  c #413E76",
"O  c #463F7A",
"+  c #014F7A",
"@  c #034E75",
"#  c #09557B",
"$  c #06567B",
"%  c #3C436F",
"&  c #3B4273",
"*  c #3C437C",
"=  c #424275",
"-  c #44447B",
";  c #49447D",
":  c #4A487D",
">  c #454979",
",  c #045786",
"<  c #095781",
"1  c #045984",
"2  c #0A5C84",
"3  c #035C89",
"4  c #085F8A",
"5  c #015F92",
"6  c #3D4782",
"7  c #04638E",
"8  c #0B648C",
"9  c #046291",
"0  c #0B6492",
"q  c #2B789C",
"w  c #33799C",
"e  c #3B7D9E",
"r  c #377A97",
"t  c #3D6596",
"y  c #2D7AA5",
"u  c #2A77A5",
"i  c #337EA4",
"p  c #474783",
"a  c #4C4483",
"s  c #4C4588",
"d  c #4C4A89",
"f  c #444A81",
"g  c #504584",
"h  c #514A84",
"j  c #504A88",
"k  c #4D5F87",
"l  c #56628A",
"z  c #5A658E",
"x  c #5D6A8F",
"c  c #486998",
"v  c #5C6692",
"b  c #546C9E",
"n  c #5C6A99",
"m  c #576993",
"M  c #616A94",
"N  c #6A6C9C",
"B  c #66689A",
"V  c #66779C",
"C  c #426EA2",
"Z  c #596FA0",
"A  c #5878AB",
"S  c #4472A6",
"D  c #6A6AA1",
"F  c #616BA0",
"G  c #726AA4",
"H  c #1298BD",
"J  c #2C83A7",
"K  c #2A83AB",
"L  c #2784AF",
"P  c #3680A5",
"I  c #3B84A3",
"U  c #3483AC",
"Y  c #3D86A9",
"T  c #2389B6",
"R  c #278AB8",
"E  c #3482B0",
"W  c #3B9CBF",
"Q  c #5592AF",
"!  c #5C87B3",
"~  c #4E95B6",
"^  c #549ABA",
"/  c #6885A9",
"(  c #7685A9",
")  c #6C8FB9",
"_  c #079FCB",
"`  c #0C9CC4",
"'  c #169DC7",
"]  c #0DA1CD",
"[  c #07A4CD",
"{  c #12A1CC",
"}  c #06A4D2",
"|  c #0AA5D3",
" . c #0BAAD7",
".. c #0DA6D9",
"X. c #05ACDD",
"o. c #0BAADC",
"O. c #06A8D6",
"+. c #13A4D4",
"@. c #11A7D9",
"#. c #1EB4DA",
"$. c #3BA9CE",
"%. c #39A4CB",
"&. c #3CADD4",
"*. c #35AFDB",
"=. c #3AADDA",
"-. c #36ABD7",
";. c #28B4DC",
":. c #35B1DA",
">. c #3DB1DB",
",. c #39B1D5",
"<. c #04ACE0",
"1. c #09AAE0",
"2. c #1BB7E2",
"3. c #1EBCE6",
"4. c #1DBEEA",
"5. c #22BBE6",
"6. c #24BCE8",
"7. c #2AB7E4",
"8. c #32B4E3",
"9. c #36B5E8",
"0. c #439BC6",
"q. c #44A6CC",
"w. c #41A4D4",
"e. c #42ABD3",
"r. c #49ABD2",
"t. c #5FADD1",
"y. c #4AB3DE",
"u. c #4CBDDD",
"i. c #56B4D5",
"p. c #53B5DA",
"a. c #58B8DC",
"s. c #5AADCB",
"d. c #66A9D7",
"f. c #61BADE",
"g. c #6AB0DC",
"h. c #77B3D8",
"j. c #48BBE2",
"k. c #58BEE3",
"l. c #66ADE0",
"z. c #73B8E1",
"x. c #34C7EB",
"c. c #6AC1DD",
"v. c #72C2DD",
"b. c #5AC2E6",
"n. c #47C2EC",
"m. c #64CAE4",
"M. c #6CCDE7",
"N. c #64CEED",
"B. c #6CCCEC",
"V. c #67C5E3",
"C. c #72CCE5",
"Z. c #7CCCE6",
"A. c #73CCE9",
"S. c #63D0EE",
"D. c #6CD0EA",
"F. c #7DD5EE",
"G. c #64CFF1",
"H. c #6ACEF0",
"J. c #7BD6F8",
"K. c #79D8F6",
"L. c #8780B4",
"P. c #8CC7EB",
"I. c #86C7E7",
"U. c #83D2E6",
"Y. c #85D4EB",
"T. c #9CD5E6",
"R. c #9CD6EB",
"E. c #9DD9ED",
"W. c #9DD7F1",
"Q. c #95DCF4",
"!. c #9DDBF2",
"~. c #94DDF8",
"^. c #9EDEF9",
"/. c #8CCEEC",
"(. c #A2CFE2",
"). c #A0D3E6",
"_. c #A1D2EA",
"`. c #ABD2EF",
"'. c #A3DBEE",
"]. c #ABDCEC",
"[. c #B4DDED",
"{. c #B9DCED",
"}. c #B3DBE7",
"|. c #A3DCF2",
" X c #AADCF3",
".X c #A8D7F5",
"XX c #B2D6F7",
"oX c #BAD7F1",
"OX c #B4DCF3",
"+X c #BADEF1",
"@X c #B4D8F8",
"#X c #9CE6FA",
"$X c #95EAFF",
"%X c #9CEBFE",
"&X c #97E1F8",
"*X c #B2E1EE",
"=X c #BAE0EF",
"-X c #ABE2F5",
";X c #A2E1FD",
":X c #ADE4F8",
">X c #A3E2F4",
",X c #B5E3F4",
"<X c #BBE3F5",
"1X c #B8E8F5",
"2X c #B2E6FA",
"3X c #BBE5F8",
"4X c #B3EAFE",
"5X c #BBEAFD",
"6X c #A8E2EE",
"7X c #C5DAF6",
"8X c #C3DBF9",
"9X c #C2E3F6",
"0X c #C3E4FB",
"qX c #CAE2FC",
"wX c #C3EDFF",
/* pixels */
"L.B D G B D B A k.-.7.5.3.5.;.x.x.#.6.6.x.2.;.u.%X6X-X-X X,X X].",
"B o O o o o X t r.H _ } } [ ` #.#.[ _ } [ [ ` $.&XT.R.R.T.).)._.",
"G O O a s s 6 C y.' ..1.X. .[ #.3.} o.X.X. .] ,.$XT.E.W.E.E.T.).",
"G O g g s d 6 t j.' ..<.X.X.| 2.3.} 1.1.1.o._ ,.$XE.!.!.W.E.E.'.",
"G ; s s s d 6 y y._ @.<.X.X.} 2.3.O.1.X.<.X.] :.$XE.!.!.W.!.E.E.",
"G ; j s d d p S y.' @.1.X.X.O.2.4.O.1.1.1.o.+.,.$X&X!.!.>X|.'.'.",
"G = p ; p f 6 t p.' +... . .{ 7.7...@.....+.' &.%X6X>X>X|.|.|.].",
"( v n n v b b ! f.&.8.8.7.8.-.9.n.*.9.8.8.8.=.a.#X6X'.].'.'.].].",
"qXoXoX@XXXXXXX.X0.J R R T T L 0.0.u R R T R J ^ 4X1X1X<X1X1X,X*X",
"[.(._._._.R._.|.S $ , , , 3 + q y , 3 3 1 1 @ r 4X}.=X=X*X*X*X}.",
" XR.'.R.W.W.W.^.Y , 0 5 9 9 , u E 3 0 9 8 0 < e 4X*X<X*X,X,X*X*X",
"-XR.!.!.W.W.W.^.Y $ 0 5 9 0 1 y E , 0 9 9 8 $ r 4X*X<X<X,X1X,X6X",
",X'. X|.^.!.^.^.I $ 8 9 9 7 1 y E 1 7 9 7 8 $ I 5X<X3X<X<X,X,X-X",
",X'.|.|.|.|.|.|.~ $ 8 8 8 8 $ y E 1 0 7 8 8 $ I 5X<X<X9X3X3X1X,X",
":X'.|.|.|.|.|.;XI $ 8 1 2 2 $ w U $ 7 7 7 $ $ C wX9X9X0X0X0X0X<X",
",X'.|.'.|.|.|..XQ r e P P P r ~ ^ q K J J J w Q 3X7X7X7X8X8X8XoX",
"-X6X'.'.|.'.].|.:X|.#X^.;X^.;X^.~.F.J.K.K.K.Y././ z M x M x l ( ",
"-XT.E.E.R.R.R.R. XR.W.R.R.R.R.Q.Z.V.V.m.b.m.V.I.l . X o o o   l ",
":XT.R.E.E.!.E.'.;X|.!.!.R.E.E.Q.F.m.H.N.S.b.z.I.b f a a ; a = v ",
":XE.E.Q.E.Q.W.E.-XR.!.Q.!.!.!.Q.F.m.N.G.G.G.G.Z.Z X s a g g o M ",
":XE.E.E.!.!.|.|.-XW.!.!.E.W.!.Q.F.M.H.H.G.S.M.P.b - g g g h - B ",
":X'.'.&X&X!.|.'.-X|.|.|.|.'.!.&XY.M.D.H.D.H.A.P.n : h h g h > B ",
"2X'.>X!.#X!.|.|.2X|..X.X X|.|.!.Y.v.A.M.D.C.Z.I.m & : : ; > % x ",
">X&X&X&X~.&X^..X.X.XXXXX`.`..X|.W.U.Y.U.U.U.I.(./ n M N N V x ( ",
"v.s.a.i.i.i.d.h./ k m m m m l V 3X3X2X,X2X,X1X}.wX9XqX9X7XqXqX+X",
"f.W %.%.%.%.~ d.Z X X O o X   z qX{.,X=X<X{.*X}.9X{.{.{.+X{.+X[.",
"b.%.&.-.-.&.$.l.A 6 p a ; ; = v 8X8X+XOX,X{.=X{.9X9X=X<X,XOX<X].",
"b.$.=.*.*.-.-.l.A X s s g a - v qX{.,X<X+X<X<X{.=X=X=X*X,X,X,X}.",
"b.&.=.:.*.*.w.l.A * d s g g ; v qX<X<X3X3X<X<X[.<X=X<X3X3X3X3XOX",
"b.$.>.>.=.y.r.l.A 6 j j g : ; M qX9X<X3X3X3X9X=X9X<X<X3X<X3X3XOX",
"m.q.&.&.&.e.q.g.A & > ; : : % x qX9X<X3X0X9X1X=X0X<X3X1X3X3X3X,X",
"N.p.k.b.j.a.a.z.) n F D N N M ( 0X+X<X<X<X=X=X=X9X<X3X,X3X<X,X]."
};
