/* XPM */
static char *cf0a566c59f749e295c77a578df1100fnXSSRusEySeykPY2[] = {
/* columns rows colors chars-per-pixel */
"32 32 145 2 ",
"   c #000000",
".  c #040708",
"X  c #060A0C",
"o  c #090D0E",
"O  c #080E12",
"+  c #0B1115",
"@  c #0D151A",
"#  c #0F181D",
"$  c #101719",
"%  c #12181A",
"&  c #0F1A21",
"*  c #121D23",
"=  c #131F28",
"-  c #152026",
";  c #15232A",
":  c #1B262B",
">  c #1C2A2F",
",  c #172731",
"<  c #1B2C34",
"1  c #1B2E39",
"2  c #1D313D",
"3  c #232D2F",
"4  c #253033",
"5  c #23353C",
"6  c #29393D",
"7  c #1E3341",
"8  c #263A44",
"9  c #2E3C40",
"0  c #243C4A",
"q  c #253D50",
"w  c #2B434D",
"e  c #34464C",
"r  c #254253",
"t  c #2B4450",
"y  c #2F4955",
"u  c #2A475A",
"i  c #2C4A5C",
"p  c #304A58",
"a  c #2C4C60",
"s  c #2F5469",
"d  c #355260",
"f  c #385461",
"g  c #33576C",
"h  c #355D74",
"j  c #365F78",
"k  c #3B5F7D",
"l  c #3E6477",
"z  c #3A637E",
"x  c #405459",
"c  c #4A5F64",
"v  c #41677A",
"b  c #566F75",
"n  c #3D6482",
"m  c #3B6A84",
"M  c #3F6E8A",
"N  c #436985",
"B  c #426B89",
"V  c #457186",
"C  c #4F7686",
"Z  c #48728F",
"A  c #537C8C",
"S  c #446D90",
"D  c #447492",
"F  c #4C7B95",
"G  c #49779B",
"H  c #457B9A",
"J  c #4A7A9C",
"K  c #567A94",
"L  c #477FA0",
"P  c #4B7DA1",
"I  c #4D829F",
"U  c #51829D",
"Y  c #688992",
"T  c #70919A",
"R  c #4C81A4",
"E  c #4E83A8",
"W  c #4E88AA",
"Q  c #5185A3",
"!  c #5A8CA3",
"~  c #5486A8",
"^  c #538AA9",
"/  c #5C8CAE",
"(  c #518EB3",
")  c #5290B5",
"_  c #5B92B1",
"`  c #5C98B7",
"'  c #5595BC",
"]  c #5698BF",
"[  c #5C9BBE",
"{  c #6291A3",
"}  c #709EAD",
"|  c #6394B3",
" . c #619AB4",
".. c #6B9FB3",
"X. c #639EBD",
"o. c #70A0AF",
"O. c #65A0BC",
"+. c #6AA3BC",
"@. c #75A6B5",
"#. c #7DA5B0",
"$. c #75AABB",
"%. c #7BADBA",
"&. c #579BC1",
"*. c #5A9EC3",
"=. c #619FC1",
"-. c #5FA0C4",
";. c #63A2C5",
":. c #6AA7C6",
">. c #6AA9C7",
",. c #64A6C9",
"<. c #66A9CB",
"1. c #6CACCB",
"2. c #72AFCC",
"3. c #6DB0CE",
"4. c #72B1CE",
"5. c #75B4D0",
"6. c #7AB7D1",
"7. c #85ABB4",
"8. c #8AAFB6",
"9. c #86B0BC",
"0. c #92BCC9",
"q. c #8AC4D5",
"w. c #84C3D9",
"e. c #89C7DB",
"r. c #8DCADD",
"t. c #9BC6D0",
"y. c #99C8D5",
"u. c #93CEDF",
"i. c #9FCFDD",
"p. c #9ED0DF",
"a. c #A0CDD7",
"s. c #A1D1DD",
"d. c #A2D2DE",
"f. c #A9D5DF",
"g. c #8FCEE0",
"h. c #93CFE0",
"j. c #95D1E1",
"k. c #9FD1E0",
"l. c #A3D5E1",
"z. c #A3D5E2",
"x. c #A5D6E2",
"c. c #A8D8E3",
"v. c #ACDAE3",
"b. c #AEDDE6",
"n. c #B3DFE7",
/* pixels */
"S < . u ] <.g.r.-.&.L G P P ] ] ~ r.=.P J &.1.r.,.' J G P &.>.,.",
"n O   1 X...V g i u a h M P P &.>.e.1.=.-.<.x.1.' R ' ;.,.>.x.h.",
"L +   + 4 O               + 7 v 9.1.g.c.r.4.r.-.E =.1.x.b.r.>.,.",
"R O                   @ , O     + 7 j Q O.p.1.*.>.l.q. .N i n ' ",
"L O                   1 L ^ A w +     X & 8 0 t x 8 > +     = D ",
"^ +                   0 ;.r.<.&.W j 7 & o                   $ U ",
"%.%                   0 1.x.3.*.*.&.] ) m .                 o 7.",
"Q +               .   t w.5.s.4.*.' E &.I X                 o U ",
"n O     O 8 p k m M C b v H +.c.,.E ] <.o.o                 X H ",
"Z +   ; @.,.&.R &.2.s.l   . - f F ) 1.k.{ .                 o H ",
"%.%   5 s.1.&.R :.x.:.i         X : c A A @ . . . X % 1 y % o R ",
"Q +   5 2.r.;.*.r.>.P g                 ; } I D U 7.o.y.:.: o @.",
"n O   1 ;.x.2.>.b.,.P g                 * t.,.*.>.n.>.1.a.3 o R ",
"n O   ; ' 1.s.2.t.` ( i                 : X.*.*.1.c.<.&.X.; o I ",
"Q +   = k g 8 4 * * * 7 g e @           : U &.<.w.1.' R ) ; o ! ",
"$.$   . .             0 u.:.^ B e @     = G ;.w.<.&.W ' [ : o 7.",
"^ +                   q c.:.P =.l.o.Y i 0 F $.` _ W F l w . o Q ",
"^ +                   0 2.q.~ ] 1.c.>.E F $ + # % + .       o H ",
"J +                   5 =.v./ ] 2.f./ ] U o                 O H ",
"N O                   + 8 b Z X.s.5.&.;.@..                 X z ",
"R +         X O * 3 $ X .   . 3 d { [ <.8.X                 O k ",
"R +   . 6 C N K 0.X.E U T d < .   . : y c .                 + M ",
"^ +   6 s.2.>.s.>.P P R 1.f.=.n q ; X                   . = z &.",
"%.$   5 =.>.x.2.*.' ' &.:.r.1.&.&.+.#.l r 2 < > : 5 0 s M J :.r.",
"W +   9 ;.-.r.1.&.P P =.g.5.l.2.4.k.1.&.P =.i.=.L X.0.<.*.<.j.3.",
"Z +   6 [ P :.l.1.&.=.4.l.<.4.c.c.5.*.&.P =.g.<.' P ,.e.<.g.<.*.",
"@.$   5 =.P &.1.w.4.g.b.1.,.w.| :.e.1.&.P &.<.w.,.P =.e.5.s./ &.",
"^ +   6 s.1.*.,.5.k.5.=.&.,.e.,.*.<.k.1.&.*.*.3.w.*.&._ 0.1.&.&.",
"R +   1 1.s.4.x.g.4.e.P P *.<.x.,.*.4.k.<.*.1.w.<.&.&.=.g.,.&.P ",
"R O   1 &.1.w.5.<.<.x.1.&.P :.g.=.P &.1.e.5.k.6.=.P P 1.l.<.&.P ",
"m +   , ' *.<.e.e.<.4.x.,.=.k.<.&.&.P &.1.x.6.l.g.<.=.e.=.&.&.&.",
"( 2   s &.*.*.,.1.e.<.h.1.g.<.&.&.P &.*.,.h.,.,.2.b.j.<.&.P P &."
};
