/* XPM */
static char *_bfec7c86e094aef9c3bbfbf279a9863MjJ24fvlTku2DNf0[] = {
/* columns rows colors chars-per-pixel */
"32 32 186 2 ",
"   c #020101",
".  c #0C0401",
"X  c #0E0907",
"o  c #060708",
"O  c #070C0F",
"+  c #0E0B0A",
"@  c #130701",
"#  c #140B05",
"$  c #1C0D02",
"%  c #120C09",
"&  c #010415",
"*  c #090F12",
"=  c #040818",
"-  c #0A1014",
";  c #0C1419",
":  c #291607",
">  c #311A03",
",  c #311D0B",
"<  c #3C240E",
"1  c #22201D",
"2  c #0B1425",
"3  c #111D25",
"4  c #0E1C37",
"5  c #18272F",
"6  c #172730",
"7  c #1B2C34",
"8  c #36342F",
"9  c #29373C",
"0  c #422406",
"q  c #47290C",
"w  c #4C2C0B",
"e  c #512902",
"r  c #512D0A",
"t  c #573109",
"y  c #5C340D",
"u  c #432A15",
"i  c #573917",
"p  c #613A12",
"a  c #693E10",
"s  c #513A32",
"d  c #7B4714",
"f  c #61412A",
"g  c #744F29",
"h  c #795228",
"j  c #000E4E",
"k  c #021846",
"l  c #01134B",
"z  c #001353",
"x  c #102146",
"c  c #1F3643",
"v  c #132B57",
"b  c #223946",
"n  c #223B49",
"m  c #243D55",
"M  c #001C68",
"N  c #012065",
"B  c #0A2A68",
"V  c #11306C",
"C  c #012572",
"Z  c #062871",
"A  c #0A317C",
"S  c #223D62",
"D  c #27414E",
"F  c #2B424E",
"G  c #374447",
"H  c #394B4F",
"J  c #2B4758",
"K  c #344B53",
"L  c #2C4C69",
"P  c #365A6D",
"I  c #365A74",
"U  c #3B5D74",
"Y  c #3A5E7C",
"T  c #38637D",
"R  c #45585D",
"E  c #51696F",
"W  c #476473",
"Q  c #647474",
"!  c #814D16",
"~  c #86531C",
"^  c #8D5319",
"/  c #945B1C",
"(  c #9A5E1D",
")  c #A2611F",
"_  c #885A27",
"`  c #AC6721",
"'  c #B46C24",
"]  c #BD7324",
"[  c #C17526",
"{  c #C87826",
"}  c #C57728",
"|  c #C77928",
" . c #CB7B29",
".. c #D17F2B",
"X. c #C37D3D",
"o. c #D5832C",
"O. c #D9842D",
"+. c #DB892E",
"@. c #E0882E",
"#. c #FF9C2D",
"$. c #EB8E31",
"%. c #EE9232",
"&. c #F59533",
"*. c #F89734",
"=. c #FE9C36",
"-. c #FFA339",
";. c #FFA439",
":. c #C58B64",
">. c #012E8C",
",. c #0A3588",
"<. c #023393",
"1. c #023AA7",
"2. c #023FB3",
"3. c #3A6680",
"4. c #3C6A83",
"5. c #3F6E89",
"6. c #426C82",
"7. c #46718A",
"8. c #4B788C",
"9. c #5E6597",
"0. c #457495",
"q. c #4C7D93",
"w. c #49779B",
"e. c #457A9A",
"r. c #4A7A9D",
"t. c #517F95",
"y. c #4C7DA2",
"u. c #0143C0",
"i. c #0047D4",
"p. c #014BD3",
"a. c #1558D5",
"s. c #0252E5",
"d. c #0254EC",
"f. c #0259F6",
"g. c #598697",
"h. c #74949C",
"j. c #4D81A5",
"k. c #4E83A9",
"l. c #4E8DAE",
"z. c #5385A7",
"x. c #558CAC",
"c. c #5B8EAC",
"v. c #4F8DB1",
"b. c #538FB6",
"n. c #5292B7",
"m. c #5B91B1",
"M. c #5595BC",
"N. c #5698BF",
"B. c #5A9ABE",
"V. c #6299B6",
"C. c #66A1BE",
"Z. c #579BC1",
"A. c #5A9EC3",
"S. c #639FC0",
"D. c #5FA0C4",
"F. c #63A2C4",
"G. c #69A6C6",
"H. c #6DA9C7",
"J. c #63A5C9",
"K. c #66A9CB",
"L. c #6BACCB",
"P. c #71AECC",
"I. c #6EB1CF",
"U. c #71B1CE",
"Y. c #7DB4C8",
"T. c #75B4D0",
"R. c #7AB6D1",
"E. c #7DB8D2",
"W. c #86AFBA",
"Q. c #8CB7C3",
"!. c #94BFCA",
"~. c #84C3D9",
"^. c #89C7DB",
"/. c #8DCADD",
"(. c #92CDDE",
"). c #9CCCD8",
"_. c #9FD1DF",
"`. c #A1D2DF",
"'. c #A9D5DF",
"]. c #8FCEE0",
"[. c #93CFE0",
"{. c #98D1E0",
"}. c #A4D5E1",
"|. c #A5D6E2",
" X c #A8D7E2",
".X c #ABDBE5",
/* pixels */
"0.0.w.y.M.K.].].D.Z.y.w.y.y.Z.Z.y.^.F.y.r.B.I.^.D.M.y.w.y.Z.K.K.",
"w.y.M.Z.L.!.J.J.D.Z.Z.Z.n.v.y.Z.H./.K.V.A.G.}.I.M.k.M.F.F.L.}.(.",
"M.M.A.J.}.R.A.Z.Z.Z.Z.Z.y.y.Z.P.{.U.]..X/.U./.S.k.V.L.|..X/.G.J.",
"Z.y.Z.A.R.{.K.y.j.Z.Z.N.Z.Z.K._.U.Z.S.F.C.).C.n.C.}.].T.K.A.k.M.",
"Z.y.A.I.{.E. XS.D.A.M.y.j.J.~.L.Z.y.y.I 6 9 7 5 H V.K.~.K.G.C.y.",
"S.K.[.}.U.K. XE._.J.k.M.D.].K.Z.A.M.Y v N M M M B L e.G./..X XP.",
"{.}.I.S.A.S.T.~.T.~.K.D.K.|.T.D.Z.0.4 >.f.d.d.f.p.k m z.x.S.P. X",
"J.F.A.y.Z.L.{.L.D.L._.T.~.R.{.L.5.2 1.s.d.d.d.d.s.p.M n v.k.M.J.",
"y.y.A.Z.J.~.L.Z.Z.A.E.}.L.D.I.|.6.& u.f.p.M z z M s.C 7 V.M.z.Z.",
"y.V.J.S.].L.Z.y.Z.L.{.L.Z.Z.D./.6.= u.i.A w e e u ,.V W {.L.Z.Z.",
"]..X].I.}.L.Z.y.G.}.H.y.j.Z.F.K.g.2 2.C q @.*.*.O.: E R.K.~.L.K.",
"S.S.K.~.T./.J.S./.L.y.M.N.K.~.K.F.g.x f o.*.=.=.@.: W {.P.R.}.[.",
"y.I J P b.|.P.K..XS.y.M.J./.U.~.F.x.3 ! -.=.=.;.+.: U L. X.XR.J.",
"3.9 > , U c.W.Y. XK.M.y.G..XL.Q.j.U ; ! =.*.O. .' 8 W Z.J.L.~.J.",
"= ~ $. .q O 7 Q.R.S.M.y.G.'.H.R O - o d =.&.i . 1 g.M.y.Z.K./.I.",
". ( O.a / ` _ 9 H H n b m b b h ` ( $ $ r r R g.q.n.k.M.J.~.T.}.",
"  y h G _ +.o.$   & 4 8 t r t  .&.) d w r w E q.7.T 6.6.g.6.j.F.",
"- O D x.7 d ] >   j a.:.#.*.*.=.( $ } &.*.%.p @ $ # # # @ @ F l.",
"e.e.l.n.7   w ' e j a.:.#.=.=.=.( $  .-.=.=.O.|  . .|  .| o.h 3 ",
"y.U J J g ~ ( %.] s Z 9.:.#.#.=.+.^ d ] -.=.-.-.;.;.;.;.;.;./   ",
"0.G > 0 )  ...*.;.] < <.9.:.:.X.{ ' $ y { } [ [ [ [ ] ] ] { g 3 ",
"O ~ %.o.w o < O.*.&. ., C a.a.v X + o o % % X % % % + + + X D 0.",
"  ( o.i Q t.W i w w w . & z l S I 4.8.g.7.I T 8.h.8.4.3.I T j.B.",
"  y _ K c.J.!.L b b c b F K F w.N.L.`.L.N.N.L.~.I.~.K.D.M.z.G.^.",
"; * F _.G.D.^.L.M.y.y.A.^.U.).P.L.}.L.M.y.F.}.K.k.F.~.K.A.G._.L.",
"7.j.m./.D.j.G._.K.Z.F.U.}.K.P.'. XR.A.Z.y.A.[.K.M.j.G.^.K./.K.D.",
"/.(.}.U.F.j.N.L.~.T./.}.L.K.~.V.K.~.L.Z.y.Z.K.~.F.j.F.~.R.`.c.N.",
"F.J.I./.}.G.D.K.T.{.T.G.B.F./.K.A.L.}.L.Z.Z.F.L.~.A.N.m.~.L.N.N.",
"Z.Z.Z.D.I._.U.}.].T.^.z.y.M.L.}.J.Z.P._.L.A.L.~.J.Z.Z.S.(.J.M.y.",
"Z.Z.Z.Z.F.K.^.U.K.J.}.H.M.k.L./.F.k.M.L.~.E.{.R.F.y.y.K.}.K.M.y.",
"y.y.y.y.Z.D.K.^.^.K.P.}.J.K._.L.Z.M.k.Z.K.}.E.}./.K.G.~.H.N.N.N.",
"Z.Z.Z.Z.Z.D.D.D.L.^.L.[.L.^.L.A.Z.y.M.Z.J.[.K.J.P..X[.L.Z.y.y.N."
};
