/* XPM */
static char *eb261256b518478af37438ace6276165v8eEpPDh4Me8vzPe[] = {
/* columns rows colors chars-per-pixel */
"32 32 174 2 ",
"   c #020202",
".  c #0C0501",
"X  c #0F0907",
"o  c #02040B",
"O  c #140701",
"+  c #1B0B00",
"@  c #110A08",
"#  c #020512",
"$  c #000419",
"%  c #0C1318",
"&  c #171718",
"*  c #291100",
"=  c #2E1903",
"-  c #341B04",
";  c #3B1F04",
":  c #321C08",
">  c #000422",
",  c #00062B",
"<  c #010A2B",
"1  c #121D25",
"2  c #00093C",
"3  c #00113F",
"4  c #15232B",
"5  c #18262D",
"6  c #172933",
"7  c #292829",
"8  c #202E32",
"9  c #273234",
"0  c #3E3B33",
"q  c #462504",
"w  c #4C2B09",
"e  c #57320C",
"r  c #5A340C",
"t  c #422C15",
"y  c #5C3811",
"u  c #673907",
"i  c #4E3938",
"p  c #7B460D",
"a  c #6D4011",
"s  c #744312",
"d  c #7B4A15",
"f  c #7B4917",
"g  c #494337",
"h  c #534B3A",
"j  c #6B5231",
"k  c #011342",
"l  c #081B48",
"z  c #021656",
"x  c #1B2245",
"c  c #1F3540",
"v  c #1B315A",
"b  c #243C4B",
"n  c #373141",
"m  c #002472",
"M  c #264151",
"N  c #294454",
"B  c #3E5259",
"V  c #2B4D61",
"C  c #35586D",
"Z  c #395A6B",
"A  c #385D78",
"S  c #3B647B",
"D  c #464842",
"F  c #445356",
"G  c #46626A",
"H  c #577179",
"J  c #814D16",
"K  c #864F18",
"L  c #895013",
"P  c #8B5319",
"I  c #91561A",
"U  c #95591D",
"Y  c #995D1B",
"T  c #A66118",
"R  c #AB661A",
"E  c #B2691E",
"W  c #804F23",
"Q  c #855524",
"!  c #A96622",
"~  c #B66D23",
"^  c #BD7326",
"/  c #C37629",
"(  c #C57928",
")  c #CD7E2A",
"_  c #D17F2B",
"`  c #D9842D",
"'  c #E38A2E",
"]  c #E58E31",
"[  c #E98D31",
"{  c #EE9232",
"}  c #F69634",
"|  c #F69935",
" . c #FE9C36",
".. c #FFA138",
"X. c #FFA53A",
"o. c #002B8D",
"O. c #0239A4",
"+. c #013EB3",
"@. c #003FB9",
"#. c #3B6A85",
"$. c #0140B7",
"%. c #0040BC",
"&. c #426E8A",
"*. c #49738A",
"=. c #50788B",
"-. c #467495",
";. c #487A96",
":. c #49779C",
">. c #4A799D",
",. c #4C7DA2",
"<. c #0144C2",
"1. c #0148CC",
"2. c #014CD5",
"3. c #014EDA",
"4. c #014FE0",
"5. c #0251E2",
"6. c #0254ED",
"7. c #0257F3",
"8. c #0259F4",
"9. c #025CFC",
"0. c #578497",
"q. c #6D8F98",
"w. c #70919A",
"e. c #4D81A5",
"r. c #4E83A9",
"t. c #4D89AC",
"y. c #5788A5",
"u. c #5285A9",
"i. c #558AAC",
"p. c #5B8BAC",
"a. c #518FB5",
"s. c #5391B4",
"d. c #5C94B3",
"f. c #5E98B4",
"g. c #5595BD",
"h. c #5698BF",
"j. c #628CA9",
"k. c #639FBD",
"l. c #78AABA",
"z. c #579BC1",
"x. c #5A9EC4",
"c. c #639FC0",
"v. c #5FA0C4",
"b. c #63A2C4",
"n. c #69A6C6",
"m. c #6CA9C7",
"M. c #63A5C9",
"N. c #66A9CB",
"B. c #6BACCB",
"V. c #71AECC",
"C. c #6EB1CF",
"Z. c #7CB4C6",
"A. c #72B1CE",
"S. c #75B4D0",
"D. c #7AB6D1",
"F. c #7DB9D2",
"G. c #80BFD6",
"H. c #97C3CD",
"J. c #89C3D5",
"K. c #84C3D9",
"L. c #89C7DB",
"P. c #8DCADD",
"I. c #92CDDE",
"U. c #9FCDDB",
"Y. c #9FD0DF",
"T. c #A2D1DE",
"R. c #8FCEE0",
"E. c #93CFE0",
"W. c #95D1E1",
"Q. c #9FD1E0",
"!. c #A4D5E2",
"~. c #A8D7E2",
"^. c #ABDAE4",
"/. c #B3DFE7",
/* pixels */
"-.-.:.,.g.N.E.R.v.z.,.>.:.,.g.g.y.P.v.,.>.z.V.P.v.g.,.:.,.z.N.M.",
":.,.g.z.m.K.N.v.v.z.z.h.#.c b M N G f.b.x.N.!.B.z.,.z.c.c.B.!.E.",
"g.g.x.M.Q.S.x.z.h.z.h.;.v 3 3 3 3 l =.H.I.S.I.x.r.c.B.~.^.R.m.M.",
"z.,.z.x.D.!.B.,.e.z.a.6 m 6.5.5.5.1.< C B.!.B.x.m.~.R.C.N.c.,.g.",
"z.,.c.C.Q.F.~.b.b.x.t.1 m 7.7.6.8.2.< V M.P.N.N.!.V.B.G.N.M.c.,.",
"c.N.R.~.B.N.~.D.Y.N.:.4 m 7.6.6.8.3.< N z.M.P.B.W.M.z.M.L./.~.V.",
"E.!.B.c.x.x.S.L.S.F.0.1 z 1.6.6.5.+.$ M t.n.^.S.!.B.,.z.p.c.A.~.",
"c.M.x.,.z.B.Q.B.x.=.1     k 2.7.O.$     c b.~.n.n.G.M.z.z.,.z.M.",
",.,.z.z.M.K.B.z.S i K + w W z z n K + w Q F y.z.,.N.G.B.M.z.,.z.",
",.c.c.M.P.B.s.A 0 P ] = f [ u q Y ] = K ` y B &.c.x.C.R.!.B.z.x.",
"E.!.R.A.!.B.,.% I  .{ q u { ' ' ' ` : K  .{ w N G.S.Q.D.B.K.B.M.",
"c.c.M.R.S.P.u.% Y X.| ` f = : ; = ; ! [ ..| w b B.~.F.Q.A.S.!.E.",
",.,.g.c.c.!.c.Z j f P { ^ s s u a J ] ( K J D #.N./.N.B.~.~.D.c.",
":.:.,.,.z.V.Q.F.H % . ( .. . . . . . .f o 1 -.x.B.~.M.x.M.C.R.M.",
"x.c.c.,.,.z.V.Q.A.S @ ^  . . . . .}  .s 8 *.z.N.K.B.z.,.z.N.R.B.",
"R.R.Q.n.c.x.x.N.P.w.. ; R .. .....} p + 4 ,.c.K.M.z.,.z.M.K.A.Q.",
"N.v.B.R.!.N.x.x.N.=.o 2 i T T T T U x > 4 f.K.C.N.x.b.N.K.N.x.N.",
"x.x.z.c.B.R.M.m.L.q.# $.o.# # # o < <.m 4 F.C.P.!.D.!.P.N.z.z.x.",
"z.z.x.x.N.!.D.T.C.#.o %.4.%.@.@.@.<.6.m 5 H.N.M.A.!.A.b.g.r.z.z.",
",.,.g.z.x.S.!.V.v.*.o z @.9.9.9.9.6.o., 8 k.x.v.L.B.v.g.r.g.g.,.",
"z.z.,.,.b.P.b.,.m.q.  * v @.@.@.%.O.7 O 9 k.h.M.R.M.z.,.g.x.z.:.",
"z.z.z.x.A.T.y.j.Y.*.X ~ Q o o o o & / s 9 p.r.b.^.M.z.,.g.z.g.,.",
"M.M.V.~.~.V.m.U.m.C X ( ' L .   - E } f 4 :.g.B.^.C.v.g.r.g.z.x.",
"R.E.!.F.N.N.!.C.x.#.@ ( X.) O   r  . .s 4 i.B.K.B.K.N.z.g.r.n.P.",
"x.M.V.!.M.c.R.B.z.A & !  .) O   r }  .s 1 d.!.N.u.b.G.B.x.m.Q.B.",
"i.c.B.R.c.,.M.Q.m.g.;.7 Y _ O   e |  .f 1 s.R.N.h.,.M.L.B.P.n.v.",
"L.E.!.A.N.,.z.B.K.A.J.q.h a G 1 r [ P g C g.N.K.M.>.x.K.A.T.i.z.",
"M.M.B.R.!.B.x.M.A.!.C.b.A M Z.M r ' - C z.z.z.B.G.b.x.d.J.B.z.z.",
"x.z.x.x.V.Q.S.!.R.S.L.u.>.s.b.B r _ : H B.v.B.R.M.z.z.b.W.M.z.,.",
"z.z.z.z.x.B.K.S.N.N.!.m.g.u.m.l.F t Z k.G.S.Q.S.b.,.,.B.!.N.g.,.",
",.,.,.,.z.x.M.R.L.N.B.!.N.n.Q.B.>.V -.z.B.!.F.!.P.N.n.F.B.g.z.g.",
"z.z.z.z.z.x.x.c.B.L.B.E.N.P.B.x.z.,.s.z.M.W.M.n.B./.E.n.z.,.,.z."
};
